<svg width="234" height="62" viewBox="0 0 234 62" fill="none" xmlns="http://www.w3.org/2000/svg">
<path d="M24.9793 32.8546V38.1348H7.49152V32.8546H24.9793ZM9.70288 5.28038V38.1348H2.93343V5.28038H9.70288ZM22.7002 18.6613V23.8061H7.49152V18.6613H22.7002ZM24.9567 5.28038V10.5831H7.49152V5.28038H24.9567ZM38.1571 33.509C38.9544 33.509 39.6614 33.3585 40.2782 33.0577C40.895 32.7418 41.3764 32.3055 41.7224 31.7489C42.0834 31.1773 42.2714 30.5079 42.2865 29.7407H48.4016C48.3865 31.4556 47.9277 32.9825 47.0251 34.3213C46.1225 35.6451 44.9115 36.6906 43.3922 37.4578C41.8728 38.21 40.1729 38.5861 38.2925 38.5861C36.3971 38.5861 34.7423 38.2702 33.3282 37.6383C31.9292 37.0065 30.7634 36.134 29.8307 35.0208C28.898 33.8926 28.1985 32.5838 27.7322 31.0945C27.2658 29.5902 27.0327 27.9806 27.0327 26.2657V25.6113C27.0327 23.8813 27.2658 22.2717 27.7322 20.7824C28.1985 19.2781 28.898 17.9693 29.8307 16.8561C30.7634 15.7279 31.9292 14.8479 33.3282 14.216C34.7273 13.5842 36.367 13.2683 38.2474 13.2683C40.2481 13.2683 42.0007 13.6519 43.505 14.4191C45.0244 15.1863 46.2128 16.2845 47.0702 17.7136C47.9427 19.1277 48.3865 20.805 48.4016 22.7456H42.2865C42.2714 21.9332 42.0984 21.1961 41.7675 20.5342C41.4516 19.8723 40.9852 19.3458 40.3685 18.9547C39.7667 18.5485 39.0221 18.3454 38.1346 18.3454C37.1868 18.3454 36.4121 18.5485 35.8104 18.9547C35.2087 19.3458 34.7423 19.8873 34.4114 20.5793C34.0804 21.2563 33.8472 22.031 33.7119 22.9035C33.5915 23.761 33.5313 24.6636 33.5313 25.6113V26.2657C33.5313 27.2134 33.5915 28.1235 33.7119 28.996C33.8322 29.8685 34.0578 30.6432 34.3888 31.3202C34.7348 31.9971 35.2087 32.5312 35.8104 32.9223C36.4121 33.3134 37.1944 33.509 38.1571 33.509ZM51.1319 26.1754V25.7015C51.1319 23.9114 51.3876 22.2642 51.8991 20.7598C52.4106 19.2405 53.1552 17.9242 54.133 16.811C55.1108 15.6978 56.3143 14.8328 57.7434 14.216C59.1725 13.5842 60.8122 13.2683 62.6625 13.2683C64.5128 13.2683 66.1601 13.5842 67.6042 14.216C69.0484 14.8328 70.2593 15.6978 71.2372 16.811C72.23 17.9242 72.9822 19.2405 73.4936 20.7598C74.0051 22.2642 74.2608 23.9114 74.2608 25.7015V26.1754C74.2608 27.9505 74.0051 29.5977 73.4936 31.1171C72.9822 32.6214 72.23 33.9377 71.2372 35.0659C70.2593 36.1791 69.0559 37.0441 67.6268 37.6609C66.1977 38.2777 64.558 38.5861 62.7077 38.5861C60.8573 38.5861 59.2101 38.2777 57.766 37.6609C56.3369 37.0441 55.1259 36.1791 54.133 35.0659C53.1552 33.9377 52.4106 32.6214 51.8991 31.1171C51.3876 29.5977 51.1319 27.9505 51.1319 26.1754ZM57.6306 25.7015V26.1754C57.6306 27.1983 57.7208 28.1536 57.9013 29.0411C58.0819 29.9287 58.3677 30.7109 58.7588 31.3879C59.165 32.0498 59.6915 32.5688 60.3383 32.9449C60.9852 33.3209 61.775 33.509 62.7077 33.509C63.6102 33.509 64.385 33.3209 65.0318 32.9449C65.6787 32.5688 66.1977 32.0498 66.5888 31.3879C66.9799 30.7109 67.2657 29.9287 67.4463 29.0411C67.6418 28.1536 67.7396 27.1983 67.7396 26.1754V25.7015C67.7396 24.7087 67.6418 23.776 67.4463 22.9035C67.2657 22.016 66.9724 21.2337 66.5662 20.5568C66.1751 19.8648 65.6561 19.3232 65.0093 18.9321C64.3624 18.541 63.5802 18.3454 62.6625 18.3454C61.7449 18.3454 60.9626 18.541 60.3158 18.9321C59.684 19.3232 59.165 19.8648 58.7588 20.5568C58.3677 21.2337 58.0819 22.016 57.9013 22.9035C57.7208 23.776 57.6306 24.7087 57.6306 25.7015Z" fill="#FFEB3B"/>
<path d="M97.7057 27.236H104.453C104.317 29.4473 103.708 31.4104 102.625 33.1254C101.557 34.8403 100.06 36.1791 98.1344 37.1419C96.2239 38.1047 93.9223 38.5861 91.2296 38.5861C89.1235 38.5861 87.2356 38.225 85.5658 37.503C83.896 36.7658 82.4669 35.7128 81.2785 34.3439C80.1051 32.9749 79.2101 31.3202 78.5933 29.3796C77.9765 27.439 77.6681 25.2653 77.6681 22.8584V20.5793C77.6681 18.1724 77.984 15.9987 78.6159 14.0581C79.2627 12.1025 80.1804 10.4402 81.3688 9.07127C82.5722 7.70234 84.0089 6.64931 85.6787 5.91219C87.3484 5.17508 89.2138 4.80652 91.2747 4.80652C94.0126 4.80652 96.3217 5.30294 98.2021 6.2958C100.098 7.28865 101.564 8.65758 102.602 10.4026C103.655 12.1476 104.287 14.1333 104.498 16.3597H97.7283C97.6531 15.0359 97.3898 13.9152 96.9385 12.9975C96.4872 12.0649 95.8027 11.3654 94.8851 10.899C93.9825 10.4176 92.779 10.1769 91.2747 10.1769C90.1465 10.1769 89.1612 10.3876 88.3187 10.8088C87.4763 11.23 86.7693 11.8693 86.1976 12.7268C85.626 13.5842 85.1973 14.6673 84.9114 15.9761C84.6407 17.2698 84.5053 18.7892 84.5053 20.5342V22.8584C84.5053 24.5583 84.6331 26.0551 84.8889 27.3488C85.1446 28.6275 85.5357 29.7106 86.0623 30.5981C86.6038 31.4706 87.2958 32.1325 88.1382 32.5838C88.9957 33.0201 90.0261 33.2382 91.2296 33.2382C92.6437 33.2382 93.8095 33.0126 94.7271 32.5613C95.6448 32.11 96.3443 31.4405 96.8257 30.553C97.3221 29.6654 97.6154 28.5598 97.7057 27.236ZM107.454 26.1754V25.7015C107.454 23.9114 107.709 22.2642 108.221 20.7598C108.732 19.2405 109.477 17.9242 110.455 16.811C111.433 15.6978 112.636 14.8328 114.065 14.216C115.494 13.5842 117.134 13.2683 118.984 13.2683C120.835 13.2683 122.482 13.5842 123.926 14.216C125.37 14.8328 126.581 15.6978 127.559 16.811C128.552 17.9242 129.304 19.2405 129.815 20.7598C130.327 22.2642 130.583 23.9114 130.583 25.7015V26.1754C130.583 27.9505 130.327 29.5977 129.815 31.1171C129.304 32.6214 128.552 33.9377 127.559 35.0659C126.581 36.1791 125.378 37.0441 123.949 37.6609C122.519 38.2777 120.88 38.5861 119.029 38.5861C117.179 38.5861 115.532 38.2777 114.088 37.6609C112.659 37.0441 111.448 36.1791 110.455 35.0659C109.477 33.9377 108.732 32.6214 108.221 31.1171C107.709 29.5977 107.454 27.9505 107.454 26.1754ZM113.952 25.7015V26.1754C113.952 27.1983 114.043 28.1536 114.223 29.0411C114.404 29.9287 114.689 30.7109 115.081 31.3879C115.487 32.0498 116.013 32.5688 116.66 32.9449C117.307 33.3209 118.097 33.509 119.029 33.509C119.932 33.509 120.707 33.3209 121.354 32.9449C122.001 32.5688 122.519 32.0498 122.911 31.3879C123.302 30.7109 123.588 29.9287 123.768 29.0411C123.964 28.1536 124.061 27.1983 124.061 26.1754V25.7015C124.061 24.7087 123.964 23.776 123.768 22.9035C123.588 22.016 123.294 21.2337 122.888 20.5568C122.497 19.8648 121.978 19.3232 121.331 18.9321C120.684 18.541 119.902 18.3454 118.984 18.3454C118.067 18.3454 117.284 18.541 116.638 18.9321C116.006 19.3232 115.487 19.8648 115.081 20.5568C114.689 21.2337 114.404 22.016 114.223 22.9035C114.043 23.776 113.952 24.7087 113.952 25.7015ZM141.436 3.47519V38.1348H134.915V3.47519H141.436ZM153.666 3.47519V38.1348H147.145V3.47519H153.666ZM170.274 38.5861C168.379 38.5861 166.679 38.2852 165.175 37.6835C163.67 37.0667 162.392 36.2168 161.339 35.1336C160.301 34.0505 159.503 32.7944 158.947 31.3653C158.39 29.9212 158.112 28.3868 158.112 26.7621V25.8595C158.112 24.0092 158.375 22.3168 158.902 20.7824C159.428 19.248 160.18 17.9167 161.158 16.7884C162.151 15.6602 163.354 14.7952 164.768 14.1935C166.182 13.5767 167.777 13.2683 169.552 13.2683C171.282 13.2683 172.816 13.5541 174.155 14.1258C175.494 14.6974 176.615 15.5098 177.517 16.5628C178.435 17.6158 179.127 18.8794 179.593 20.3537C180.06 21.8129 180.293 23.4375 180.293 25.2277V27.9355H160.887V23.603H173.907V23.1066C173.907 22.204 173.742 21.3992 173.411 20.6922C173.095 19.9701 172.613 19.3984 171.967 18.9772C171.32 18.556 170.492 18.3454 169.484 18.3454C168.627 18.3454 167.89 18.5335 167.273 18.9095C166.656 19.2856 166.152 19.8121 165.761 20.4891C165.385 21.166 165.099 21.9633 164.904 22.8809C164.723 23.7835 164.633 24.7764 164.633 25.8595V26.7621C164.633 27.7399 164.768 28.6425 165.039 29.4699C165.325 30.2972 165.724 31.0118 166.235 31.6135C166.762 32.2153 167.393 32.6816 168.131 33.0126C168.883 33.3435 169.733 33.509 170.68 33.509C171.854 33.509 172.944 33.2833 173.952 32.832C174.975 32.3657 175.855 31.6662 176.592 30.7335L179.751 34.1634C179.24 34.9005 178.54 35.6075 177.653 36.2844C176.78 36.9614 175.727 37.518 174.494 37.9542C173.26 38.3755 171.854 38.5861 170.274 38.5861ZM194.08 33.509C194.877 33.509 195.584 33.3585 196.201 33.0577C196.818 32.7418 197.299 32.3055 197.645 31.7489C198.006 31.1773 198.194 30.5079 198.209 29.7407H204.325C204.309 31.4556 203.851 32.9825 202.948 34.3213C202.045 35.6451 200.834 36.6906 199.315 37.4578C197.796 38.21 196.096 38.5861 194.215 38.5861C192.32 38.5861 190.665 38.2702 189.251 37.6383C187.852 37.0065 186.686 36.134 185.754 35.0208C184.821 33.8926 184.121 32.5838 183.655 31.0945C183.189 29.5902 182.956 27.9806 182.956 26.2657V25.6113C182.956 23.8813 183.189 22.2717 183.655 20.7824C184.121 19.2781 184.821 17.9693 185.754 16.8561C186.686 15.7279 187.852 14.8479 189.251 14.216C190.65 13.5842 192.29 13.2683 194.17 13.2683C196.171 13.2683 197.924 13.6519 199.428 14.4191C200.947 15.1863 202.136 16.2845 202.993 17.7136C203.866 19.1277 204.309 20.805 204.325 22.7456H198.209C198.194 21.9332 198.021 21.1961 197.69 20.5342C197.375 19.8723 196.908 19.3458 196.291 18.9547C195.69 18.5485 194.945 18.3454 194.058 18.3454C193.11 18.3454 192.335 18.5485 191.733 18.9547C191.132 19.3458 190.665 19.8873 190.334 20.5793C190.003 21.2563 189.77 22.031 189.635 22.9035C189.514 23.761 189.454 24.6636 189.454 25.6113V26.2657C189.454 27.2134 189.514 28.1235 189.635 28.996C189.755 29.8685 189.981 30.6432 190.312 31.3202C190.658 31.9971 191.132 32.5312 191.733 32.9223C192.335 33.3134 193.117 33.509 194.08 33.509ZM220.052 13.7196V18.3228H205.836V13.7196H220.052ZM209.356 7.69481H215.855V30.7786C215.855 31.4857 215.945 32.0272 216.126 32.4033C216.321 32.7794 216.607 33.0426 216.983 33.1931C217.359 33.3285 217.833 33.3962 218.405 33.3962C218.811 33.3962 219.172 33.3811 219.488 33.351C219.819 33.3059 220.097 33.2608 220.323 33.2156L220.346 37.9994C219.789 38.1799 219.187 38.3228 218.54 38.4281C217.893 38.5334 217.179 38.5861 216.397 38.5861C214.968 38.5861 213.719 38.3529 212.651 37.8866C211.598 37.4052 210.786 36.638 210.214 35.5849C209.642 34.5319 209.356 33.1479 209.356 31.433V7.69481Z" fill="#2E7D32"/>
<path d="M16.5306 0H11.4529C11.2194 0 11.0298 0.255033 11.0298 0.57039V1.28369C11.0298 1.51987 11.2194 1.71157 11.4529 1.71157H16.5306C16.7642 1.71157 16.9537 1.51987 16.9537 1.28369V0.57039C16.9537 0.255033 16.7642 0 16.5306 0Z" fill="#2E7D32"/>
<path d="M24.994 2.56616H16.9542H11.0302H2.99051C2.75695 2.56616 2.56738 2.73645 2.56738 2.94656V5.60891C2.56738 5.81901 2.75695 5.9893 2.99051 5.9893H24.9939C25.2279 5.9893 25.417 5.81901 25.417 5.60891V2.94656C25.4171 2.73645 25.228 2.56616 24.994 2.56616Z" fill="#2E7D32"/>
<path d="M62.6886 24.3024V26.3714C63.2705 26.7513 63.6467 27.0906 63.8616 27.3815C64.0765 27.6805 64.1751 27.9714 64.184 28.2706C64.202 28.7555 63.79 29.685 62.6886 29.8467V30.8085H62.0527V29.8629C61.0676 29.7497 60.5842 29.0305 60.3335 28.6182L60.8977 28.3193C61.2381 28.8931 61.6229 29.2001 62.0527 29.2811V26.7029C61.5513 26.3553 61.22 26.0967 61.0945 25.9431C60.8616 25.6602 60.7453 25.3532 60.7453 25.0299C60.7453 24.5047 61.1123 23.7772 62.0527 23.6559V23.1063H62.6886V23.6639C63.396 23.7852 63.8078 24.2861 64.0765 24.6094L63.5393 24.973C63.3421 24.7387 63.0825 24.4237 62.6886 24.3024ZM62.0527 25.9351V24.2784C61.569 24.3916 61.4258 24.7876 61.4258 25.0059C61.4258 25.3778 61.6854 25.6364 61.8467 25.7737C61.8736 25.806 61.9542 25.8627 62.0527 25.9353V25.9351ZM62.6886 27.1635V29.2405C63.2705 29.0625 63.4765 28.5696 63.4676 28.2867C63.4676 28.0847 63.396 27.8988 63.2527 27.7048C63.1272 27.5512 62.9393 27.3655 62.6886 27.1635Z" fill="#2E7D32"/>
<path d="M227.771 32.0922C227.771 32.0922 230.336 38.3671 219.343 42.582C213.37 44.8716 208.782 50.74 214.26 59.8053C214.714 55.7533 216.659 46.819 225.024 44.7803C225.024 44.7803 217.238 47.6914 216.551 60.8686C220.551 61.4303 229.933 61.8077 232.718 53.666C236.397 42.909 227.771 32.0922 227.771 32.0922Z" fill="#3A7F0D"/>
<path d="M216.554 60.8138C225.047 57.4246 231.226 49.4848 232.079 40.0066C230.343 35.3235 227.771 32.0922 227.771 32.0922C227.771 32.0922 230.336 38.3671 219.343 42.582C213.37 44.8716 208.782 50.74 214.26 59.8053C214.714 55.7533 216.659 46.8191 225.024 44.7803C225.023 44.7804 217.261 47.6842 216.554 60.8138Z" fill="#49A010"/>
</svg>
