<svg width="79" height="62" viewBox="0 0 79 62" fill="none" xmlns="http://www.w3.org/2000/svg">
<path d="M1.33442 49.5479H30.691C31.4249 49.5479 32.0254 48.9474 32.0254 48.2135V16.1881C32.0254 15.4542 31.4249 14.8538 30.691 14.8538H1.33442C0.600506 14.8538 3.05176e-05 15.4542 3.05176e-05 16.1881V48.2135C3.05176e-05 48.9474 0.600506 49.5479 1.33442 49.5479Z" fill="#FFAC33"/>
<path d="M29.3564 17.5226H2.66864V46.8792H29.3564V17.5226Z" fill="#D99E82"/>
<path d="M2.66864 46.8792H29.3564L2.66864 17.5226V46.8792Z" fill="#FFD983"/>
<path d="M28.022 18.8569H4.00295V45.5447H28.022V18.8569Z" fill="#BBDDF5"/>
<path d="M7.69798 18.8569L24.3271 45.5447H16.0126L4.00306 26.0426V18.8569H7.69798Z" fill="#F5F8FA"/>
<path d="M2.66824 17.5226H30.6904V16.1882H1.33385L2.66824 17.5226ZM29.356 46.8791L30.6904 48.2135V17.5226H29.356V46.8791Z" fill="#662113"/>
<path d="M1.33385 48.2135H30.6904L29.356 46.8791H1.33385V48.2135ZM1.33385 16.1882L2.66824 17.5226V46.8791H1.33385V16.1882Z" fill="#C1694F"/>
<path d="M4.94471 13.933C4.94471 13.933 5.16222 13.1498 6.33248 12.5066C7.1251 12.0702 8.47284 12.3878 8.47284 12.3878C8.47284 12.3878 8.90384 11.2749 10.6532 10.565C11.9209 10.0486 13.3434 10.8506 13.3434 10.8506C13.3434 9.51621 14.6471 8.18182 16.0121 8.18182C17.3772 8.18182 18.6809 9.51621 18.6809 10.8506C18.6809 10.8506 20.1034 10.0486 21.371 10.565C23.1191 11.2749 23.5514 12.3878 23.5514 12.3878C23.5514 12.3878 24.8992 12.0702 25.6918 12.5066C26.8607 13.1498 27.0796 13.933 27.0796 13.933C27.0796 13.933 29.4975 14.8538 30.6904 14.8538H1.33385C2.5268 14.8538 4.94471 13.933 4.94471 13.933ZM30.6904 49.5479C29.4975 49.5479 27.0796 50.1004 27.0796 50.1004C27.0796 50.1004 26.8621 50.5701 25.6918 50.957C24.8992 51.2186 23.5514 51.0278 23.5514 51.0278C23.5514 51.0278 23.1204 51.695 21.371 52.122C20.1034 52.4302 18.6809 51.9498 18.6809 51.9498C18.6809 52.7505 17.3772 53.5511 16.0121 53.5511C14.6471 53.5511 13.3434 52.7505 13.3434 51.9498C13.3434 51.9498 11.9209 52.4302 10.6532 52.122C8.90518 51.6963 8.47284 51.0278 8.47284 51.0278C8.47284 51.0278 7.1251 51.2186 6.33248 50.957C5.16355 50.5714 4.94471 50.1004 4.94471 50.1004C4.94471 50.1004 2.5268 49.5479 1.33385 49.5479H30.6904Z" fill="#FFAC33"/>
<path d="M26.8639 15.3542H25.3533C25.2206 15.3542 25.0933 15.3015 24.9995 15.2076C24.9057 15.1138 24.8529 14.9865 24.8529 14.8538C24.8529 14.4308 24.7302 14.1372 24.4793 13.9558C23.7441 13.4247 22.0867 13.8023 21.5076 13.9945C21.4328 14.0181 21.3534 14.024 21.2759 14.0116C21.1984 13.9993 21.1248 13.9691 21.0609 13.9234C20.9971 13.8777 20.9448 13.8177 20.9082 13.7483C20.8715 13.6789 20.8515 13.6019 20.8498 13.5234C20.8471 13.3273 20.775 12.6854 20.0158 12.6854C19.0977 12.6854 18.0369 13.5408 17.7019 13.8717L17.7006 13.873C17.607 13.9631 17.482 14.0132 17.3522 14.0127C17.2223 14.0123 17.0977 13.9614 17.0046 13.8708C16.9116 13.7802 16.8574 13.657 16.8536 13.5271C16.8497 13.3973 16.8965 13.2711 16.984 13.1751L16.9854 13.1738L16.992 13.1671C17.5325 12.6267 17.4551 11.7834 17.2015 11.1736C16.9307 10.513 16.4183 10.0166 16.0126 10.0166C15.6069 10.0166 15.0945 10.513 14.8223 11.1722C14.5688 11.782 14.4914 12.6254 15.0318 13.1658L15.0385 13.1725L15.0398 13.1738C15.1324 13.269 15.1833 13.3971 15.1814 13.5298C15.1796 13.6626 15.125 13.7892 15.0298 13.8817C14.9346 13.9742 14.8066 14.0252 14.6738 14.0233C14.541 14.0214 14.4145 13.9669 14.3219 13.8717C13.9883 13.5421 12.9275 12.6854 12.0094 12.6854C11.2502 12.6854 11.1794 13.3273 11.1754 13.5194C11.1752 13.5985 11.1562 13.6765 11.12 13.7469C11.0839 13.8172 11.0316 13.8781 10.9674 13.9244C10.9033 13.9707 10.8291 14.0012 10.7509 14.0134C10.6727 14.0256 10.5928 14.0191 10.5176 13.9945C9.93979 13.8036 8.28382 13.4247 7.5459 13.9558C7.29503 14.1372 7.17227 14.4308 7.17227 14.8538C7.17227 15.13 6.94809 15.3542 6.67187 15.3542H5.16134C5.02863 15.3542 4.90135 15.3015 4.80751 15.2076C4.71367 15.1138 4.66095 14.9865 4.66095 14.8538C4.66095 14.7211 4.71367 14.5938 4.80751 14.5C4.90135 14.4061 5.02863 14.3534 5.16134 14.3534H6.21551C6.29575 13.8677 6.56365 13.4331 6.96144 13.1431C7.91953 12.4532 9.45274 12.6894 10.2827 12.8896C10.4909 12.2811 11.0166 11.6846 12.0094 11.6846C12.5832 11.6846 13.1463 11.8861 13.6254 12.141C13.6229 11.6765 13.7156 11.2165 13.8976 10.7892C14.3019 9.81247 15.0545 9.15862 15.8151 9.05587C15.8775 9.0289 15.9448 9.01509 16.0127 9.01532C16.0807 9.01555 16.1479 9.02981 16.2101 9.05721C16.9707 9.15996 17.7246 9.81381 18.1289 10.7906C18.3106 11.2179 18.4028 11.678 18.3998 12.1423C18.8802 11.8861 19.442 11.6846 20.0158 11.6846C21.0086 11.6846 21.5343 12.2811 21.7425 12.8896C22.5738 12.6881 24.111 12.4546 25.0638 13.1431C25.4616 13.4328 25.7291 13.8677 25.8084 14.3534H26.8639C26.9966 14.3534 27.1239 14.4061 27.2177 14.5C27.3115 14.5938 27.3643 14.7211 27.3643 14.8538C27.3643 14.9865 27.3115 15.1138 27.2177 15.2076C27.1239 15.3015 26.9966 15.3542 26.8639 15.3542ZM5.16134 48.6472H6.67187C6.94809 48.6472 7.2123 48.9435 7.2123 49.2197C7.65665 49.5973 9.49144 49.5052 10.5923 49.3211C10.7391 49.2971 10.8832 49.3118 10.9953 49.4052C11.05 49.447 11.0942 49.501 11.1245 49.5628C11.1549 49.6246 11.1705 49.6926 11.1701 49.7614C11.1915 49.8188 11.3876 49.9816 12.0094 49.9816C13.205 49.9816 14.442 49.3731 14.4554 49.3665C14.5734 49.3128 14.7077 49.3071 14.8298 49.3505C14.952 49.3939 15.0526 49.483 15.1103 49.5991C15.1681 49.7151 15.1786 49.8491 15.1395 49.9727C15.1005 50.0963 15.015 50.2 14.9011 50.2618C14.6982 50.3633 14.6075 50.4647 14.6302 50.5621C14.6996 50.8596 15.3254 51.316 16.0113 51.316C16.6971 51.316 17.323 50.8583 17.3924 50.5621C17.4164 50.466 17.3243 50.3646 17.1215 50.2618C17.0626 50.2326 17.01 50.1921 16.9668 50.1425C16.9236 50.0929 16.8907 50.0352 16.8699 49.9728C16.849 49.9105 16.8407 49.8446 16.8454 49.779C16.8501 49.7134 16.8678 49.6494 16.8973 49.5906C16.9571 49.4728 17.0609 49.3832 17.1863 49.3412C17.3116 49.2993 17.4485 49.3083 17.5672 49.3665C17.5792 49.3731 18.8175 49.9816 20.0131 49.9816C20.6349 49.9816 20.8324 49.8188 20.8471 49.8148C20.8469 49.7421 20.8627 49.6702 20.8934 49.6043C20.9241 49.5383 20.9688 49.4799 21.0246 49.4332C21.0803 49.3866 21.1453 49.3525 21.2153 49.3332C21.2852 49.3139 21.3585 49.3097 21.4302 49.3211C22.5284 49.5066 24.3632 49.5987 24.8503 49.1476C24.8503 49.0149 24.903 48.8876 24.9968 48.7938C25.0907 48.7 25.218 48.6472 25.3507 48.6472H26.8639C26.9966 48.6472 27.1239 48.7 27.2177 48.7938C27.3115 48.8876 27.3643 49.0149 27.3643 49.1476C27.3643 49.2803 27.3115 49.4076 27.2177 49.5015C27.1239 49.5953 26.9966 49.648 26.8639 49.648H25.7323C25.6635 49.7758 25.5711 49.8894 25.4601 49.983C24.6448 50.6728 22.5871 50.49 21.6517 50.3659C21.4329 50.6688 20.9752 50.9824 20.0144 50.9824C19.4603 50.9741 18.9099 50.8902 18.3785 50.7329C18.3758 50.7529 18.3705 50.7716 18.3665 50.7916C18.1716 51.6176 17.0921 52.3168 16.0113 52.3168C14.9304 52.3168 13.8509 51.6189 13.6547 50.7916L13.6427 50.7329C13.161 50.8703 12.5872 50.9824 12.0068 50.9824C11.046 50.9824 10.5896 50.6688 10.3695 50.3659C9.43673 50.4914 7.37643 50.6728 6.56112 49.983C6.44973 49.8898 6.35731 49.7761 6.2889 49.648H5.15734C5.09163 49.6478 5.02661 49.6346 4.966 49.6092C4.90539 49.5838 4.85037 49.5467 4.80409 49.5C4.75781 49.4534 4.72117 49.3981 4.69627 49.3373C4.67137 49.2765 4.65868 49.2113 4.65895 49.1456C4.65921 49.0799 4.67241 49.0149 4.6978 48.9543C4.72319 48.8937 4.76027 48.8387 4.80692 48.7924C4.85358 48.7461 4.90889 48.7095 4.9697 48.6846C5.03051 48.6596 5.09563 48.647 5.16134 48.6472Z" fill="#C1694F"/>
<path d="M34.2079 30.7905C34.2079 19.5495 36.6419 1.05304 36.6419 1.05304H50.3663C50.3663 1.05304 52.8003 19.5495 52.8003 30.7905C52.8003 35.2998 49.5894 39.0581 45.3297 39.9064V57.0289H41.6785V39.9065C37.4188 39.0581 34.2079 35.2998 34.2079 30.7905Z" fill="#80D3CF"/>
<path d="M42.2132 37.2213L42.5698 35.4312C40.3687 34.9927 38.7712 33.0412 38.7712 30.7905H36.9459C36.9458 33.9089 39.161 36.6135 42.2132 37.2213Z" fill="white"/>
<path d="M36.946 28.3567H38.7713C38.7713 25.4041 38.9459 23.4445 39.21 20.4785C39.2791 19.7019 39.354 18.8615 39.4326 17.9229L37.6138 17.7704C37.5353 18.7057 37.4607 19.5428 37.3919 20.3166C37.1331 23.2229 36.946 25.323 36.946 28.3567Z" fill="white"/>
<path d="M32.9048 59.7672H54.1016V61.5925H32.9048V59.7672Z" fill="#311363"/>
<path d="M46.2419 40.6268V56.1163H50.325V57.9416H46.2419H40.7654H36.6826V56.1163H40.7654V40.6268C36.3942 39.413 33.2948 35.391 33.2948 30.7906C33.2948 19.6189 35.7121 1.11965 35.7366 0.934098L35.841 0.140381H51.1662L51.2706 0.933858C51.2951 1.11941 53.7124 19.6188 53.7124 30.7904C53.7125 35.3909 50.6131 39.413 46.2419 40.6268ZM49.5623 1.9657H37.4451C37.3893 2.41027 37.3124 3.03007 37.2207 3.79138H45.3292V5.6167H37.0053C36.2902 11.7925 35.1201 23.0768 35.1201 30.7906C35.1201 34.7768 37.9532 38.2341 41.8562 39.0115L42.5906 39.1578V56.1164H44.4164V39.1577L45.1509 39.0114C49.0542 38.2339 51.887 34.7767 51.887 30.7905C51.8872 21.0524 50.0222 5.62162 49.5623 1.9657Z" fill="#311363"/>
<path d="M79 6.84741V23.3605C79 26.5456 77.7347 29.6003 75.4825 31.8525C73.2303 34.1047 70.1756 35.37 66.9905 35.37C63.8054 35.37 60.7507 34.1047 58.4985 31.8525C56.2463 29.6003 54.981 26.5456 54.981 23.3605V6.84741H79Z" fill="#EAEAEA"/>
<path d="M62.4871 51.8831H65.4894V33.8688H68.4918V51.8831H71.4942C72.2905 51.8831 73.0542 52.1994 73.6172 52.7625C74.1803 53.3255 74.4966 54.0892 74.4966 54.8855H59.4847C59.4847 54.0892 59.801 53.3255 60.3641 52.7625C60.9271 52.1994 61.6908 51.8831 62.4871 51.8831Z" fill="#EAEAEA"/>
<path d="M77.498 17.3557V23.3605C77.498 26.1474 76.3909 28.8203 74.4202 30.791C72.4495 32.7617 69.7767 33.8688 66.9897 33.8688C64.2027 33.8688 61.5299 32.7617 59.5592 30.791C57.5885 28.8203 56.4814 26.1474 56.4814 23.3605V17.3557H77.498Z" fill="#EACA44"/>
<path d="M55.1052 25.0013C57.8509 28.5621 62.1458 30.8664 66.9901 30.8664C71.8344 30.8664 76.1293 28.5621 78.875 25.0013C78.5136 27.6159 77.3005 30.0386 75.4234 31.8942C73.5463 33.7499 71.1099 34.9351 68.4913 35.2664V36.8712H65.4889V35.2664C62.8705 34.9346 60.4343 33.7492 58.5573 31.8937C56.6803 30.0381 55.467 27.6157 55.1052 25.0013Z" fill="black"/>
<path d="M75.9976 6.84741H74.4964V17.3557H75.9976V6.84741Z" fill="white"/>
<path d="M75.9976 24.1111C75.9976 24.3101 75.9185 24.5011 75.7777 24.6418C75.637 24.7826 75.446 24.8617 75.247 24.8617C75.0479 24.8617 74.857 24.7826 74.7162 24.6418C74.5754 24.5011 74.4964 24.3101 74.4964 24.1111V17.3557H75.9976V24.1111Z" fill="white"/>
</svg>
