<svg width="133" height="106" viewBox="0 0 133 106" fill="none" xmlns="http://www.w3.org/2000/svg">
<g clip-path="url(#clip0_155_1861)">
<path d="M31.931 57.4295C30.8696 51.7356 32.5407 45.2579 37.1856 41.8114C36.9224 48.1049 38.8887 54.2889 42.7367 59.2693C44.2276 61.1846 46.0849 63.1593 46.0272 65.5879C45.9914 67.0991 45.176 68.5069 44.1014 69.5674C43.0268 70.628 41.7031 71.3927 40.3952 72.1455L40.1916 72.4629C36.3576 68.1285 32.9925 63.1234 31.931 57.4295Z" fill="#F0F0F0"/>
<path d="M37.27 41.8984C35.3186 46.2758 34.7928 51.1581 35.7675 55.852C35.9595 56.8662 36.3097 57.8438 36.8054 58.7487C37.3166 59.6145 38.0499 60.3274 38.929 60.8131C39.7396 61.2826 40.623 61.6687 41.3056 62.3274C41.65 62.6698 41.9183 63.0813 42.0929 63.5349C42.2675 63.9886 42.3445 64.4741 42.3188 64.9596C42.2861 66.171 41.8211 67.2985 41.3281 68.3852C40.7807 69.5917 40.193 70.8363 40.2285 72.1928C40.2328 72.3572 39.9781 72.3543 39.9738 72.1901C39.9121 69.83 41.6145 67.9346 41.9938 65.67C42.1708 64.6133 42.0312 63.4967 41.2899 62.6776C40.6417 61.9613 39.7311 61.5624 38.9063 61.0942C38.0418 60.6329 37.3031 59.9665 36.7548 59.1531C36.2148 58.2764 35.8276 57.314 35.6097 56.3071C35.0832 54.0481 34.9143 51.7201 35.1092 49.4085C35.3171 46.769 35.974 44.1847 37.0514 41.7672C37.1182 41.6176 37.3363 41.7498 37.27 41.8984Z" fill="white"/>
<path d="M35.3651 54.3591C34.5571 54.4161 33.7553 54.1834 33.1027 53.7026C32.4501 53.2217 31.9893 52.524 31.8026 51.7341C31.7654 51.5741 32.0117 51.5086 32.049 51.6688C32.2215 52.4047 32.6507 53.0546 33.2593 53.5011C33.8679 53.9476 34.6157 54.1614 35.3677 54.1039C35.5312 54.0915 35.5276 54.3469 35.3651 54.3591Z" fill="white"/>
<path d="M38.4865 60.6295C39.5833 59.3863 40.1723 57.7746 40.1361 56.1155C40.1324 55.9512 40.3871 55.954 40.3908 56.1182C40.4253 57.8447 39.8089 59.5208 38.6647 60.8119C38.5556 60.9349 38.3779 60.7518 38.4865 60.6295Z" fill="white"/>
<path d="M35.6155 46.9275C35.9327 46.9708 36.2557 46.9344 36.5553 46.8216C36.855 46.7088 37.1221 46.5232 37.3325 46.2814C37.4401 46.1571 37.6176 46.3403 37.5107 46.4638C37.277 46.7299 36.9818 46.9345 36.651 47.0598C36.3201 47.1852 35.9637 47.2274 35.6128 47.1828C35.5794 47.1814 35.5478 47.1673 35.5244 47.1433C35.501 47.1194 35.4875 47.0874 35.4868 47.0538C35.4873 47.0201 35.5012 46.9878 35.5252 46.9642C35.5493 46.9405 35.5818 46.9274 35.6155 46.9275Z" fill="white"/>
<path d="M56.1805 46.5211C56.1155 46.6006 56.0506 46.6802 55.9862 46.7618C55.1186 47.8356 54.3395 48.9783 53.6565 50.1786C53.6022 50.2706 53.5486 50.3646 53.4971 50.4579C51.8824 53.3673 50.8208 56.5518 50.366 59.8496C50.1862 61.162 50.1064 62.4863 50.1271 63.8109C50.1558 65.6402 50.3321 67.6213 49.7726 69.3038C49.7162 69.48 49.649 69.6525 49.5713 69.8203L40.5936 72.6872C40.5699 72.6834 40.5468 72.6818 40.523 72.678L40.1698 72.8089C40.164 72.7407 40.1594 72.6698 40.1536 72.6016C40.15 72.562 40.1485 72.5218 40.1449 72.4822C40.1432 72.4556 40.1416 72.429 40.1385 72.4051C40.1379 72.3963 40.1374 72.3874 40.1374 72.3806C40.1343 72.3567 40.134 72.3342 40.1316 72.3123C40.1049 71.9161 40.0802 71.5192 40.0597 71.121C40.059 71.1189 40.059 71.1189 40.0604 71.1162C39.9063 68.0832 40.0034 65.0107 40.5628 62.0506C40.5797 61.9616 40.5958 61.8705 40.6168 61.7801C40.8763 60.4473 41.2441 59.1379 41.7165 57.8651C41.9774 57.169 42.2733 56.4866 42.603 55.8204C43.4583 54.1009 44.5782 52.5269 45.9215 51.1562C48.5998 48.424 52.1201 46.5807 55.8922 46.5227C55.9887 46.5213 56.0833 46.5205 56.1805 46.5211Z" fill="#F0F0F0"/>
<path d="M56.1964 46.6417C52.0087 48.9592 48.6561 52.5403 46.6147 56.8763C46.1587 57.8019 45.8511 58.7938 45.7033 59.8154C45.5914 60.8152 45.7486 61.8268 46.1587 62.7452C46.5239 63.6091 46.9973 64.4505 47.1466 65.3884C47.216 65.8696 47.183 66.36 47.0499 66.8276C46.9169 67.2952 46.6867 67.7293 46.3745 68.1014C45.6206 69.049 44.5721 69.6685 43.5256 70.2387C42.3638 70.8718 41.147 71.5109 40.3604 72.6154C40.2651 72.7492 40.0635 72.5932 40.1587 72.4596C41.5271 70.5379 44.025 70.0518 45.6883 68.4725C46.4644 67.7356 47.0236 66.7598 46.9238 65.6585C46.8366 64.6955 46.3491 63.8274 45.9718 62.9559C45.5586 62.0659 45.3692 61.0881 45.42 60.1078C45.5154 59.0819 45.7844 58.0798 46.2153 57.1444C47.1519 55.023 48.4155 53.0623 49.9597 51.3343C51.7113 49.3523 53.7882 47.6852 56.1007 46.4051C56.2438 46.3259 56.3386 46.5631 56.1964 46.6417Z" fill="white"/>
<path d="M47.19 55.4413C46.5107 54.9993 46.0103 54.3296 45.7781 53.5519C45.5459 52.7742 45.5971 51.9391 45.9225 51.1957C45.9889 51.0455 46.2249 51.1418 46.1584 51.2922C45.8541 51.9839 45.8065 52.7618 46.0242 53.4856C46.2418 54.2093 46.7105 54.8313 47.3455 55.2391C47.4834 55.3279 47.3271 55.5296 47.19 55.4413Z" fill="white"/>
<path d="M45.9158 62.3315C47.5383 62.0008 48.9768 61.0693 49.9445 59.7228C50.0403 59.5893 50.242 59.7453 50.1463 59.8787C49.1367 61.278 47.6377 62.2443 45.9486 62.5847C45.7875 62.617 45.7557 62.3637 45.9158 62.3315Z" fill="white"/>
<path d="M51.8543 49.6589C52.0816 49.8848 52.3614 50.0506 52.6684 50.1414C52.9754 50.2322 53.3002 50.2452 53.6134 50.1791C53.7739 50.1447 53.8056 50.3981 53.6461 50.4323C53.2997 50.5036 52.9411 50.4889 52.6016 50.3893C52.2622 50.2898 51.9522 50.1084 51.6989 49.8611C51.673 49.8398 51.6563 49.8094 51.652 49.7761C51.6477 49.7429 51.6562 49.7092 51.6757 49.682C51.6965 49.6554 51.7268 49.638 51.7603 49.6336C51.7937 49.6293 51.8275 49.6384 51.8543 49.6589Z" fill="white"/>
<path d="M70.2824 15.3849C70.3125 15.5174 70.3321 15.6521 70.3411 15.7877L80.8672 21.8739L83.4257 20.3977L86.1532 23.9765L81.8773 27.0311C81.5318 27.2778 81.1158 27.4056 80.6918 27.3953C80.2677 27.3849 79.8584 27.237 79.5254 26.9736L68.6711 18.3913C68.1813 18.573 67.6478 18.601 67.1418 18.4714C66.6357 18.3419 66.1809 18.061 65.838 17.6661C65.4951 17.2712 65.2802 16.781 65.2221 16.2608C65.1639 15.7405 65.2651 15.2148 65.5123 14.7537C65.7595 14.2925 66.1409 13.9176 66.6058 13.679C67.0707 13.4404 67.5971 13.3493 68.1149 13.4178C68.6328 13.4863 69.1175 13.7113 69.5047 14.0627C69.8919 14.414 70.1631 14.8752 70.2824 15.3849Z" fill="#FFB6B6"/>
<path d="M81.0132 21.202C81.0466 21.0467 81.113 20.9005 81.2079 20.7733C81.3029 20.6462 81.424 20.541 81.5632 20.4651L86.4229 17.8112C87.07 17.3217 87.8845 17.1093 88.6876 17.2208C89.4908 17.3322 90.217 17.7583 90.7071 18.4057C91.1973 19.053 91.4112 19.8688 91.3021 20.674C91.193 21.4793 90.7698 22.2083 90.1252 22.7012L86.2302 26.6669C86.1191 26.7801 85.9849 26.8679 85.8368 26.9244C85.6887 26.9809 85.5302 27.0048 85.3721 26.9944C85.214 26.9839 85.06 26.9395 84.9205 26.864C84.7811 26.7886 84.6596 26.6839 84.5641 26.5571L81.2107 22.1008C81.1152 21.9741 81.0481 21.8281 81.014 21.673C80.98 21.5179 80.9797 21.3572 81.0132 21.202Z" fill="#3F3D56"/>
<path d="M89.6953 5.77358C90.3945 3.54016 91.9845 1.49176 94.1835 0.73674C96.3826 -0.0182729 99.6027 1.13186 101.256 2.78323C104.28 5.80393 105.018 16.1811 102.94 19.4604C102.527 19.4385 101.101 19.4223 100.683 19.4066L100.091 17.4301V19.3871C96.8265 19.286 93.4276 19.3493 90.027 19.4148C89.7222 17.093 88.9961 8.00699 89.6953 5.77358Z" fill="#2F2E41"/>
<path d="M88.7598 99.5205H85.7822L84.3657 88.009L88.7605 88.0093L88.7598 99.5205Z" fill="#FFB6B6"/>
<path d="M114.826 97.6647L111.945 98.4173L107.677 87.6362L111.93 86.5255L114.826 97.6647Z" fill="#FFB6B6"/>
<path d="M98.4168 28.8189L99.0916 30.577L98.9566 32.3352L85.752 36.9192L86.4072 29.2246L87.8914 27.4662L98.4168 28.8189Z" fill="#FFB6B6"/>
<path d="M94.2416 12.9967C96.8463 12.9967 98.9578 10.8804 98.9578 8.26985C98.9578 5.65927 96.8463 3.54297 94.2416 3.54297C91.6369 3.54297 89.5254 5.65927 89.5254 8.26985C89.5254 10.8804 91.6369 12.9967 94.2416 12.9967Z" fill="#FFB7B7"/>
<path d="M91.001 2.11458C91.9072 1.56088 92.9452 1.26136 94.0064 1.24734C95.0676 1.23332 96.1131 1.50531 97.0336 2.03487C97.954 2.56443 98.7156 3.33211 99.2387 4.25765C99.7618 5.18318 100.027 6.23258 100.007 7.2961C97.4363 7.95466 94.6967 8.23011 91.7935 7.45471L91.1299 5.82683L90.7387 7.45591C89.8505 8.08211 88.9932 8.08098 88.1669 7.45253C88.1319 6.39201 88.3752 5.34084 88.8725 4.40411C89.3699 3.46738 90.1038 2.67789 91.001 2.11458Z" fill="#2F2E41"/>
<path d="M90.0918 105.187H87.9789L87.6017 103.188L86.6358 105.187H81.0318C80.7632 105.187 80.5016 105.101 80.2852 104.942C80.0688 104.782 79.909 104.557 79.829 104.3C79.7491 104.043 79.7532 103.768 79.8408 103.513C79.9284 103.259 80.0949 103.039 80.316 102.886L84.7911 99.788V97.7667L89.4983 98.0483L90.0918 105.187Z" fill="#2F2E41"/>
<path d="M117.803 102.743L115.758 103.278L114.89 101.438L114.458 103.617L109.036 105.034C108.776 105.102 108.501 105.085 108.251 104.985C108.002 104.885 107.791 104.708 107.649 104.48C107.506 104.251 107.441 103.983 107.462 103.715C107.482 103.446 107.588 103.191 107.764 102.988L111.315 98.8587L110.806 96.9027L115.432 95.9852L117.803 102.743Z" fill="#2F2E41"/>
<path d="M114.461 90.4254L105.733 72.4456L102.993 50.562C104.882 47.0456 101.373 39.8904 101.373 39.8904V36.8862L87.7824 39.456C85.0026 47.0549 83.6546 55.1051 83.807 63.1973L84.3546 92.2868H84.1828C83.8977 92.2868 83.6243 92.4003 83.4227 92.6023C83.2212 92.8043 83.1079 93.0783 83.1079 93.3641C83.1079 93.6498 83.2212 93.9238 83.4227 94.1258C83.6243 94.3279 83.8977 94.4414 84.1828 94.4414H89.5572C89.8422 94.4414 90.1156 94.3279 90.3172 94.1258C90.5188 93.9238 90.6321 93.6498 90.6321 93.3641C90.6321 93.0783 90.5188 92.8043 90.3172 92.6023C90.1156 92.4003 89.8422 92.2868 89.5572 92.2868H89.4186L93.2768 55.2797L97.7629 73.5418L108.604 90.3563C108.327 90.3779 108.07 90.5061 107.886 90.7139C107.702 90.9217 107.605 91.193 107.616 91.4707C107.627 91.7485 107.745 92.0112 107.945 92.2035C108.146 92.3958 108.413 92.5029 108.69 92.5022H114.064C114.314 92.5025 114.557 92.4153 114.749 92.2558C114.942 92.0962 115.073 91.8743 115.12 91.6282C115.167 91.3822 115.127 91.1274 115.007 90.9078C114.886 90.6882 114.693 90.5176 114.461 90.4254Z" fill="#2F2E41"/>
<path d="M102.602 41.7323C102.558 41.5565 102.459 41.3994 102.319 41.2835C102.18 41.1676 102.008 41.0988 101.827 41.087C101.648 39.0343 100.464 25.8692 100.419 25.483L100.418 25.4667L100.075 18.1285C100.062 17.862 99.9525 17.6095 99.766 17.4191C99.5795 17.2287 99.3296 17.1138 99.064 17.0964L97.2537 16.9778C97.2289 16.977 97.2053 16.9665 97.188 16.9486C97.1708 16.9307 97.1611 16.9068 97.1611 16.8819C97.1611 16.6815 97.1217 16.4831 97.0452 16.298C96.9687 16.1129 96.8566 15.9447 96.7152 15.803C96.5739 15.6613 96.4061 15.5489 96.2214 15.4722C96.0367 15.3955 95.8387 15.3561 95.6388 15.3561H90.2792C89.9321 15.3562 89.5969 15.4833 89.3366 15.7136C89.0764 15.9438 88.9089 16.2614 88.8656 16.6066C88.8632 16.6304 88.852 16.6523 88.8341 16.6682C88.8163 16.684 88.7931 16.6925 88.7693 16.6919L88.7687 16.6919C88.1597 16.6793 87.5664 16.886 87.0964 17.2744C86.6264 17.6627 86.3109 18.2071 86.2071 18.8087C85.4744 23.0815 84.006 32.7792 84.732 38.1706C84.9847 40.0474 84.8699 42.8701 84.7743 44.4405C84.7648 44.5922 84.7853 44.7444 84.8345 44.8882C84.8838 45.032 84.9609 45.1646 85.0614 45.2785C84.8477 45.3403 84.6662 45.4828 84.5553 45.6761C84.4443 45.8693 84.4126 46.0982 84.4667 46.3144C84.5225 46.536 84.6638 46.7264 84.8596 46.8436C85.0554 46.9608 85.2896 46.9953 85.5107 46.9394L101.979 42.7787C102.2 42.7228 102.39 42.5812 102.507 42.385C102.624 42.1887 102.658 41.954 102.602 41.7323Z" fill="#3F3D56"/>
<path d="M75.3849 72.5827C75.3818 72.1009 75.2086 71.6357 74.896 71.2696C74.5833 70.9035 74.1514 70.6603 73.6768 70.5829L44.48 65.7776C44.2001 65.7312 43.9135 65.7439 43.6387 65.8151L36.7963 67.5883L32.8703 68.607L25.6251 70.4841C25.1877 70.598 24.8004 70.8541 24.5239 71.2123C24.2474 71.5705 24.0973 72.0106 24.0972 72.4635V103.127C24.0993 103.594 24.2605 104.047 24.5541 104.41C24.8476 104.774 25.256 105.026 25.7118 105.125L55.4507 104.787C55.5904 104.817 55.7328 104.832 55.8756 104.832C56.0837 104.832 56.2906 104.8 56.4892 104.738L74.1578 105.179C74.5748 105.048 74.9387 104.787 75.1956 104.432C75.4524 104.078 75.5886 103.651 75.5837 103.213L75.3849 72.5827Z" fill="white"/>
<path d="M75.3849 72.5827C75.3818 72.1009 75.2086 71.6357 74.896 71.2696C74.5833 70.9035 74.1514 70.6603 73.6768 70.5829L44.48 65.7776C44.2001 65.7312 43.9135 65.7439 43.6387 65.8151L36.7963 67.5883L32.8703 68.607L25.6251 70.4841C25.1877 70.598 24.8004 70.8541 24.5239 71.2123C24.2474 71.5705 24.0973 72.0106 24.0972 72.4635V103.127C24.0993 103.594 24.2605 104.047 24.5541 104.41C24.8476 104.774 25.256 105.026 25.7118 105.125L55.4507 104.787C55.5904 104.817 55.7328 104.832 55.8756 104.832C56.0837 104.832 56.2906 104.8 56.4892 104.738L74.1578 105.179C74.5748 105.048 74.9387 104.787 75.1956 104.432C75.4524 104.078 75.5886 103.651 75.5837 103.213L75.3849 72.5827ZM74.0048 104.691L56.3362 105.113C56.0841 105.191 55.8162 105.204 55.5578 105.15L25.8171 104.626C25.4754 104.551 25.1693 104.362 24.9493 104.089C24.7293 103.817 24.6086 103.477 24.607 103.127V72.4635C24.6073 72.1496 24.7035 71.8433 24.8828 71.5859C25.0621 71.3286 25.3158 71.1325 25.6098 71.0241C25.6565 71.0066 25.7041 70.9918 25.7525 70.9798L33.4176 68.9937L37.9503 67.8183L43.7662 66.3108C43.8909 66.2774 44.0195 66.2608 44.1486 66.2614C44.2317 66.2614 44.3147 66.2682 44.3967 66.2818L73.5935 71.0871C73.8285 71.1258 74.0512 71.2187 74.2442 71.3586C74.4371 71.4984 74.5949 71.6813 74.7051 71.8929C74.8154 72.1073 74.8736 72.3449 74.875 72.5861L75.0739 103.216C75.0776 103.545 74.9756 103.866 74.783 104.131C74.5904 104.397 74.3176 104.593 74.0048 104.691Z" fill="#CCCCCC"/>
<path d="M74.7054 71.8929C74.6855 71.906 74.6637 71.9158 74.6408 71.9219L66.0529 74.2488L63.3795 74.9727L55.7756 77.0321C55.7539 77.0375 55.7317 77.0403 55.7093 77.0406C55.694 77.0404 55.6787 77.0392 55.6634 77.0372L25.0033 71.4347L24.9014 71.416C24.8349 71.4035 24.7762 71.3651 24.7379 71.3093C24.6996 71.2535 24.6849 71.1847 24.697 71.1181C24.7092 71.0515 24.7471 70.9924 24.8026 70.9537C24.8581 70.915 24.9266 70.9 24.9931 70.9118L25.6101 71.0242L55.6991 76.5228L62.2527 74.7479L65.9186 73.7547L74.3739 71.4637L74.5082 71.4279C74.5662 71.4126 74.6278 71.4181 74.6822 71.4437C74.7365 71.4692 74.7802 71.5131 74.8056 71.5676C74.8122 71.5806 74.8173 71.5943 74.8209 71.6085C74.8349 71.662 74.8312 71.7187 74.8104 71.77C74.7896 71.8213 74.7527 71.8644 74.7054 71.8929Z" fill="#CCCCCC"/>
<path d="M55.964 104.891C55.8242 104.891 55.7104 104.779 55.709 105.5L55.4541 77.6492C55.4528 76.6463 55.566 76.5309 55.7067 76.5295H55.709C55.8488 76.5295 55.9627 76.6423 55.964 77.6446L56.2189 105.495C56.2202 104.775 56.1071 104.89 55.9663 104.891H55.964Z" fill="#CCCCCC"/>
<path d="M66.1252 105.215L63.3795 105.244L62.2526 74.7478L33.5011 69.0141C33.473 69.0091 33.4452 69.0023 33.4179 68.9937C33.197 68.9307 33.0041 68.7943 32.8706 68.607L36.7966 67.5884L37.9506 67.8183L65.232 73.2573C65.3755 73.2857 65.5111 73.3449 65.6296 73.4307C65.7481 73.5166 65.8467 73.6271 65.9186 73.7547C66.0036 73.9029 66.1235 105.037 66.1252 105.215Z" fill="#CCCCCC"/>
<path d="M88.1175 16.7652C88.1152 16.402 87.9847 16.0514 87.749 15.7755C87.5134 15.4996 87.1879 15.3163 86.8302 15.258L64.826 11.6365C64.615 11.6015 64.399 11.6111 64.1919 11.6647L59.0351 13.0011L56.0763 13.7688L50.6159 15.1836C50.2862 15.2694 49.9943 15.4624 49.786 15.7323C49.5776 16.0023 49.4644 16.334 49.4644 16.6753V34.7509C49.466 35.1032 49.5875 35.4444 49.8087 35.7182C50.0299 35.992 50.3377 36.182 50.6812 36.2568L73.094 41.0363C73.1993 41.059 73.3066 41.0702 73.4143 41.0697C73.5711 41.07 73.727 41.0462 73.8767 40.9991L87.1927 36.7845C87.507 36.6862 87.7812 36.489 87.9748 36.2221C88.1684 35.9552 88.271 35.6329 88.2674 35.303L88.1175 16.7652Z" fill="white"/>
<path d="M64.5771 12.9639C64.561 12.9638 64.545 12.9659 64.5295 12.97L50.9534 16.4889C50.9122 16.4996 50.8757 16.5236 50.8497 16.5573C50.8237 16.591 50.8096 16.6324 50.8096 16.6751V34.7504C50.8097 34.7944 50.8249 34.8371 50.8525 34.8713C50.8801 34.9055 50.9186 34.9292 50.9615 34.9386L73.3743 39.718C73.4068 39.7249 73.4405 39.7232 73.4722 39.7133L86.7884 35.4987C86.8277 35.4865 86.8619 35.4618 86.8861 35.4285C86.9102 35.3951 86.9229 35.3549 86.9224 35.3137L86.7732 16.776C86.7729 16.7306 86.7565 16.6868 86.7271 16.6524C86.6976 16.618 86.657 16.5951 86.6123 16.5878L64.6081 12.9664C64.5979 12.9647 64.5875 12.9639 64.5771 12.9639Z" fill="#2E7D32"/>
<path d="M88.1175 16.7652C88.1152 16.402 87.9847 16.0514 87.749 15.7755C87.5134 15.4996 87.1879 15.3163 86.8302 15.258L64.826 11.6365C64.615 11.6015 64.399 11.6111 64.1919 11.6647L59.0351 13.0011L56.0763 13.7688L50.6159 15.1836C50.2862 15.2694 49.9943 15.4624 49.786 15.7323C49.5776 16.0023 49.4644 16.334 49.4644 16.6753V34.7509C49.466 35.1032 49.5875 35.4444 49.8087 35.7182C50.0299 35.992 50.3377 36.182 50.6812 36.2568L73.094 41.0363C73.1993 41.059 73.3066 41.0702 73.4143 41.0697C73.5711 41.07 73.727 41.0462 73.8767 40.9991L87.1927 36.7845C87.507 36.6862 87.7812 36.489 87.9748 36.2221C88.1684 35.9552 88.271 35.6329 88.2674 35.303L88.1175 16.7652ZM87.0774 36.4173L73.7614 40.6319C73.5714 40.6912 73.3695 40.701 73.1748 40.6602L50.7606 35.8807C50.5031 35.8244 50.2724 35.6818 50.1066 35.4764C49.9408 35.271 49.8498 35.0151 49.8486 34.7509V16.6753C49.8488 16.4387 49.9213 16.2079 50.0565 16.0139C50.1916 15.82 50.3828 15.6722 50.6043 15.5905C50.6395 15.5773 50.6754 15.5661 50.7119 15.5571L56.4887 14.0603L59.9048 13.1745L64.288 12.0383C64.382 12.0132 64.4789 12.0006 64.5762 12.0011C64.6388 12.001 64.7014 12.0062 64.7632 12.0165L86.7675 15.638C86.9445 15.6672 87.1124 15.7372 87.2578 15.8426C87.4032 15.948 87.5221 16.0858 87.6052 16.2453C87.6883 16.4069 87.7322 16.5859 87.7332 16.7678L87.8831 35.3055C87.8859 35.553 87.809 35.7948 87.6639 35.9951C87.5188 36.1953 87.3131 36.3434 87.0774 36.4173Z" fill="#3F3D56"/>
<path d="M87.6053 16.2453C87.5904 16.2551 87.5739 16.2625 87.5566 16.2671L81.0844 18.0207L79.0695 18.5663L73.3389 20.1184C73.3225 20.1224 73.3058 20.1246 73.2889 20.1248C73.2773 20.1246 73.2658 20.1238 73.2543 20.1223L50.1472 15.8999L50.0704 15.8858C50.0203 15.8764 49.9759 15.8475 49.947 15.8054C49.9182 15.7634 49.9071 15.7115 49.9162 15.6613C49.9254 15.611 49.954 15.5665 49.9958 15.5373C50.0377 15.5082 50.0894 15.4968 50.1395 15.5058L50.6045 15.5905L73.2812 19.7346L78.2203 18.3969L80.9832 17.6484L87.3555 15.9217L87.4567 15.8948C87.5005 15.8832 87.5469 15.8874 87.5879 15.9067C87.6288 15.9259 87.6618 15.9589 87.6809 16C87.6858 16.0099 87.6897 16.0202 87.6924 16.0309C87.703 16.0712 87.7002 16.1139 87.6845 16.1526C87.6688 16.1912 87.641 16.2238 87.6053 16.2453Z" fill="#3F3D56"/>
<path d="M73.481 41.1146C73.4303 41.1146 73.3817 41.0945 73.3457 41.0588C73.3097 41.0231 73.2893 40.9745 73.2888 40.9238L73.0967 19.9339C73.0962 19.8829 73.116 19.8337 73.1517 19.7973C73.1874 19.7608 73.2361 19.7401 73.2871 19.7396H73.2888C73.3395 19.7396 73.3881 19.7597 73.4241 19.7954C73.46 19.8311 73.4805 19.8797 73.481 19.9304L73.6731 40.9202C73.6735 40.9713 73.6537 41.0205 73.618 41.0569C73.5823 41.0934 73.5336 41.1141 73.4827 41.1146H73.481Z" fill="#3F3D56"/>
<path d="M81.0841 38.5612L79.0693 39.1068L78.2201 18.3968L56.5514 14.0756C56.5302 14.0718 56.5092 14.0667 56.4886 14.0602C56.3222 14.0127 56.1767 13.91 56.0762 13.7688L59.035 13.0011L59.9047 13.1744L80.4654 17.2735C80.5736 17.2949 80.6758 17.3395 80.7651 17.4042C80.8544 17.4689 80.9287 17.5522 80.9829 17.6484C81.047 17.7601 81.0828 38.4277 81.0841 38.5612Z" fill="#3F3D56"/>
<path d="M80.1816 26.7532C80.2847 26.8415 80.3806 26.9379 80.4685 27.0413L92.5386 25.6285L93.7125 22.9136L98.032 24.1536L96.42 29.1623C96.2897 29.5669 96.032 29.9183 95.6856 30.1636C95.3392 30.409 94.9227 30.5351 94.4986 30.523L80.6789 30.1292C80.3941 30.5681 79.9827 30.9096 79.4995 31.1084C79.0163 31.3072 78.4842 31.3538 77.9739 31.242C77.4636 31.1303 76.9993 30.8655 76.6428 30.4829C76.2864 30.1002 76.0546 29.6179 75.9783 29.1C75.902 28.5821 75.9848 28.0532 76.2158 27.5836C76.4467 27.1141 76.8148 26.7261 77.2711 26.4713C77.7274 26.2166 78.2503 26.1071 78.7702 26.1574C79.2901 26.2078 79.7824 26.4156 80.1816 26.7532Z" fill="#FFB6B6"/>
<path d="M92.2558 25.0018C92.1901 24.8573 92.1563 24.7003 92.1567 24.5414C92.1572 24.3826 92.1918 24.2258 92.2582 24.0816L94.5773 19.0453C94.8051 18.2655 95.3322 17.608 96.0429 17.2171C96.7537 16.8261 97.5901 16.7336 98.3688 16.9599C99.1475 17.1861 99.8049 17.7126 100.197 18.4239C100.589 19.1352 100.683 19.9733 100.46 20.7544L99.696 26.2662C99.6742 26.4235 99.6188 26.5742 99.5336 26.7082C99.4484 26.8421 99.3354 26.956 99.2024 27.0422C99.0693 27.1285 98.9193 27.1849 98.7624 27.2078C98.6056 27.2306 98.4458 27.2193 98.2937 27.1747L92.9494 25.6049C92.7973 25.5603 92.6566 25.4834 92.5369 25.3793C92.4172 25.2752 92.3213 25.1465 92.2558 25.0018Z" fill="#3F3D56"/>
<path d="M132.744 105.439H0.256201C0.188442 105.439 0.123524 105.412 0.0756813 105.363C0.0278381 105.315 0.000976562 105.25 0.000976562 105.182C0.000976562 105.114 0.0278381 105.049 0.0756813 105.001C0.123524 104.953 0.188442 104.926 0.256201 104.926H132.744C132.812 104.926 132.877 104.953 132.925 105.001C132.973 105.049 133 105.114 133 105.182C133 105.25 132.973 105.316 132.925 105.364C132.877 105.412 132.812 105.439 132.744 105.439Z" fill="#CACACA"/>
<path d="M25.821 78.1791C30.0728 78.1791 33.5195 74.7246 33.5195 70.4632C33.5195 66.2018 30.0728 62.7473 25.821 62.7473C21.5693 62.7473 18.1226 66.2018 18.1226 70.4632C18.1226 74.7246 21.5693 78.1791 25.821 78.1791Z" fill="#2E7D32"/>
<path d="M24.771 74.479C24.638 74.479 24.5069 74.448 24.388 74.3884C24.2691 74.3287 24.1657 74.2422 24.086 74.1356L21.9857 71.3289C21.8494 71.1467 21.7909 70.9179 21.8231 70.6925C21.8552 70.4672 21.9753 70.2639 22.157 70.1273C22.3387 69.9907 22.5671 69.9321 22.7919 69.9643C23.0167 69.9965 23.2196 70.1169 23.3559 70.299L24.7299 72.1351L28.259 66.8295C28.3213 66.7353 28.4014 66.6544 28.4949 66.5913C28.5884 66.5283 28.6933 66.4843 28.8038 66.462C28.9143 66.4397 29.028 66.4394 29.1386 66.4613C29.2492 66.4831 29.3543 66.5266 29.4481 66.5892C29.5418 66.6519 29.6223 66.7324 29.685 66.8263C29.7476 66.9202 29.7911 67.0256 29.8131 67.1364C29.835 67.2471 29.8349 67.3612 29.8128 67.4719C29.7906 67.5826 29.7469 67.6879 29.6841 67.7817L25.4836 74.0968C25.4076 74.211 25.3054 74.3053 25.1856 74.3717C25.0657 74.4382 24.9317 74.4749 24.7948 74.4787C24.7869 74.4788 24.7789 74.479 24.771 74.479Z" fill="white"/>
<path d="M58.6013 29.4797C58.5773 29.4797 58.5535 29.477 58.5301 29.4717L51.8659 27.9635C51.7825 27.9445 51.7101 27.8932 51.6645 27.8208C51.6189 27.7483 51.6038 27.6607 51.6226 27.5772C51.6415 27.4936 51.6926 27.421 51.7648 27.3752C51.837 27.3294 51.9244 27.3142 52.0078 27.3329L58.672 28.8411C58.7494 28.8587 58.8176 28.9041 58.8636 28.9689C58.9096 29.0336 58.9303 29.1131 58.9215 29.1921C58.9127 29.2711 58.8752 29.3442 58.8162 29.3972C58.7571 29.4503 58.6806 29.4796 58.6013 29.4797Z" fill="white"/>
<path d="M32.9532 90.1831C32.9298 90.1879 32.9059 90.1902 32.8819 90.1898L26.0509 90.0745C25.9655 90.0729 25.8842 90.0374 25.8248 89.9758C25.7655 89.9142 25.733 89.8315 25.7344 89.7459C25.7358 89.6604 25.7711 89.5788 25.8324 89.5192C25.8937 89.4596 25.9762 89.4269 26.0616 89.4281L32.8926 89.5434C32.9719 89.5448 33.048 89.5754 33.1062 89.6294C33.1644 89.6834 33.2007 89.757 33.2082 89.8361C33.2157 89.9152 33.1939 89.9944 33.1468 90.0584C33.0998 90.1224 33.0308 90.1668 32.9532 90.1831Z" fill="#E6E6E6"/>
<path d="M35.318 93.8459C35.2945 93.8508 35.2706 93.853 35.2467 93.8526L28.4156 93.7373C28.3302 93.7357 28.2489 93.7002 28.1896 93.6387C28.1303 93.5771 28.0977 93.4944 28.0992 93.4088C28.1006 93.3232 28.1358 93.2417 28.1972 93.1821C28.2585 93.1225 28.3409 93.0897 28.4263 93.091L35.2574 93.2063C35.3367 93.2076 35.4127 93.2382 35.4709 93.2922C35.5291 93.3462 35.5655 93.4198 35.573 93.4989C35.5805 93.5781 35.5586 93.6572 35.5116 93.7212C35.4645 93.7852 35.3956 93.8296 35.318 93.8459Z" fill="#E6E6E6"/>
</g>
<defs>
<clipPath id="clip0_155_1861">
<rect width="133" height="105" fill="white" transform="translate(0 0.5)"/>
</clipPath>
</defs>
</svg>
